PathFileType	4	(X/Y/Z)
DataRate	CameraRate	NumFrames	NumMarkers	Units	OrigDataRate	OrigDataStartFrame	OrigNumFrames	
  100.0	  100.0	    4	     55	     mm	  100.0	      323	    516
Frame#	Time	LASI			RASI			LPSI			RPSI			RTH1			RTH2			RTH3			RLFC			RMFC			LTH1			LTH2			LTH3			LLFC			LMFC			RTB1			RTB2			RTB3			RLMAL			RMMAL			LTB1			LTB2			LTB3			LMMAL			LLMAL			RCAL			RTOE			RMT5			LCAL			LTOE			LMT5			LACR			RACR			CLAV			LASH			LPSH			RASH			RPSH			RUA1			RUA2			RUA3			RLEL			RMEL			LUA1			LUA2			LUA3			LLEL			LMEL			RFAsuperior			RFAradius			RFAulna			LFAsuperior			LFAradius			LFAulna			RHJC			LHJC			
		X1	Y1	Z1	X2	Y2	Z2	X3	Y3	Z3	X4	Y4	Z4	X5	Y5	Z5	X6	Y6	Z6	X7	Y7	Z7	X8	Y8	Z8	X9	Y9	Z9	X10	Y10	Z10	X11	Y11	Z11	X12	Y12	Z12	X13	Y13	Z13	X14	Y14	Z14	X15	Y15	Z15	X16	Y16	Z16	X17	Y17	Z17	X18	Y18	Z18	X19	Y19	Z19	X20	Y20	Z20	X21	Y21	Z21	X22	Y22	Z22	X23	Y23	Z23	X24	Y24	Z24	X25	Y25	Z25	X26	Y26	Z26	X27	Y27	Z27	X28	Y28	Z28	X29	Y29	Z29	X30	Y30	Z30	X31	Y31	Z31	X32	Y32	Z32	X33	Y33	Z33	X34	Y34	Z34	X35	Y35	Z35	X36	Y36	Z36	X37	Y37	Z37	X38	Y38	Z38	X39	Y39	Z39	X40	Y40	Z40	X41	Y41	Z41	X42	Y42	Z42	X43	Y43	Z43	X44	Y44	Z44	X45	Y45	Z45	X46	Y46	Z46	X47	Y47	Z47	X48	Y48	Z48	X49	Y49	Z49	X50	Y50	Z50	X51	Y51	Z51	X52	Y52	Z52	X53	Y53	Z53	X54	Y54	Z54	X55	Y55	Z55	

326	3.26000	540.98886	1030.68432	-383.10290	277.65594	1030.86010	-382.25261	450.67627	1080.23514	-576.17700	369.36014	1077.91605	-576.43661	218.09433	894.93400	-448.68203	234.40515	760.71057	-401.52761	245.19819	654.64431	-489.65348	246.84129	543.60726	-481.47756	374.52534	530.91965	-478.96968	595.21040	911.54755	-462.82352	581.77075	791.35156	-407.81912	568.69026	662.77689	-511.52299	565.13996	548.28780	-507.95595	445.70398	529.03368	-486.93013	290.66215	402.25507	-455.27682	232.29989	312.06717	-511.67840	289.34087	206.90711	-495.46020	246.31863	119.71817	-559.30358	333.59980	120.38536	-540.70797	523.46796	428.00059	-475.60072	582.47109	359.09387	-549.70841	526.09417	223.89505	-505.64247	476.46459	122.83475	-533.90810	558.71381	115.39361	-569.20545	296.16285	79.72237	-635.90255	286.94589	74.34533	-399.29079	198.24423	54.44733	-429.24198	500.02793	80.58289	-638.03851	543.21104	81.20631	-406.43428	618.38321	48.32834	-446.89328	563.24391	1565.25679	-486.17480	264.99081	1551.43322	-513.41631	392.54352	1508.98615	-418.43592	575.37488	1516.48518	-424.31329	583.25219	1521.08156	-562.65675	261.54432	1512.21029	-452.37379	255.80035	1497.94153	-594.58181	158.60397	1519.74860	-556.46245	105.53165	1434.07990	-577.82134	51.37377	1486.15414	-549.79329	-44.96584	1477.52182	-535.28745	-35.88117	1397.46191	-533.47428	676.88855	1540.70676	-525.12216	732.13166	1455.98168	-542.24800	786.35615	1508.29201	-512.40511	874.38942	1506.99905	-489.30714	882.95318	1428.83700	-491.53879	-83.33039	1483.24116	-464.14452	-76.92450	1459.13916	-262.60388	-144.11029	1455.59173	-282.05565	896.46554	1514.32353	-366.92488	856.17201	1471.64362	-222.47756	922.35297	1480.05693	-226.05901	303.97366	959.55108	-450.01885	495.84530	981.47822	-464.41087	
327	3.27000	541.00466	1030.69553	-383.08800	277.66813	1030.87420	-382.21315	450.67865	1080.23296	-576.15743	369.33710	1077.90123	-576.37260	218.10978	894.94040	-448.66294	234.41594	760.70804	-401.52071	245.28775	654.65378	-489.64112	246.80758	543.54291	-481.48570	374.52701	530.92128	-478.95116	595.21898	911.55480	-462.81573	581.77858	791.35013	-407.81858	568.70856	662.77397	-511.52574	565.14602	548.28075	-507.95214	445.70808	529.01796	-486.94236	290.34834	402.39287	-455.10412	232.27917	312.08260	-511.65314	289.34073	206.90484	-495.46229	246.31192	119.72695	-559.29498	333.61229	120.40534	-540.70822	523.45651	427.98410	-475.60161	582.48341	359.09184	-549.69720	526.09060	223.91042	-505.62585	476.47276	122.82814	-533.92153	558.71065	115.39538	-569.18985	296.18535	79.76060	-635.92887	286.94444	74.33513	-399.27463	197.87977	54.15605	-429.11302	500.01871	80.57923	-638.03532	543.20965	81.19943	-406.43255	618.38207	48.32250	-446.90246	563.23928	1565.08583	-485.89561	265.00205	1551.43311	-513.40796	392.55914	1508.99292	-418.42751	575.38276	1516.48445	-424.31093	583.26308	1521.06915	-562.65435	261.55971	1512.20756	-452.38411	255.79301	1497.95380	-594.55912	158.58570	1519.70302	-556.44109	105.62461	1434.17521	-577.87296	51.38008	1486.12972	-549.77756	-45.01825	1477.53542	-535.16815	-35.87239	1397.43414	-533.45992	676.90111	1540.68349	-525.12607	732.15244	1455.95950	-542.25914	786.36760	1508.26026	-512.36303	874.39778	1506.95527	-489.28689	882.95901	1428.79829	-491.52474	-83.30875	1483.21042	-464.13925	-76.92889	1459.13770	-262.57495	-144.23095	1455.56371	-281.85337	896.45387	1514.28284	-366.91384	856.13797	1471.62103	-222.45322	922.32524	1480.04186	-226.02111	303.97895	959.55669	-449.96608	495.84887	981.48212	-464.38413	
328	3.28000	541.00914	1030.69608	-383.08421	277.67543	1030.88316	-382.18301	450.68228	1080.22583	-576.13578	369.31342	1077.88476	-576.31913	218.12413	894.94826	-448.63554	234.42147	760.74816	-401.48705	245.45589	654.65059	-489.66549	246.80124	543.51811	-481.50041	374.53281	530.92278	-478.93198	595.22851	911.56055	-462.81644	581.78292	791.34442	-407.80356	568.71136	662.76225	-511.49282	565.18197	548.29272	-507.95541	445.72668	529.02230	-486.91718	290.34702	402.41197	-455.08588	232.22413	312.12503	-511.64391	289.34086	206.90336	-495.45415	246.30354	119.73556	-559.29096	333.62175	120.41569	-540.70437	523.46413	427.98721	-475.59439	582.49069	359.08644	-549.67110	526.08070	223.93093	-505.59969	476.48426	122.83182	-533.91021	558.70768	115.38928	-569.16806	296.15677	79.74488	-635.90835	286.93434	74.31665	-399.25335	197.29627	53.68754	-428.89112	500.01335	80.57859	-638.02188	543.21143	81.19274	-406.42765	618.38225	48.31988	-446.90851	563.27165	1565.19375	-486.07568	265.01392	1551.43500	-513.40208	392.56642	1509.00501	-418.42125	575.38989	1516.47946	-424.32021	583.26929	1521.05863	-562.63575	261.55299	1512.21993	-452.38283	255.79075	1497.95717	-594.54404	158.54400	1519.61358	-556.38897	105.68894	1434.24297	-577.90180	51.39607	1486.09782	-549.76180	-45.13744	1477.60188	-534.94310	-35.86265	1397.41061	-533.45036	676.91447	1540.66306	-525.13607	732.15978	1455.93821	-542.25366	786.38169	1508.21856	-512.32246	874.40435	1506.91060	-489.26656	882.96044	1428.75340	-491.49769	-83.30274	1483.19307	-464.12293	-76.93294	1459.11148	-262.56369	-144.29805	1455.52619	-281.72560	896.44165	1514.23135	-366.90357	856.11117	1471.58963	-222.42720	922.29788	1480.01864	-225.98593	303.97631	959.55940	-449.92788	495.84566	981.47746	-464.36447	
329	3.29000	541.01017	1030.68998	-383.09469	277.67947	1030.88229	-382.17454	450.69316	1080.22088	-576.13111	369.30969	1077.87779	-576.30502	218.13109	894.95825	-448.60560	234.42390	760.82235	-401.41985	245.54721	654.63608	-489.67849	246.82450	543.53723	-481.50018	374.53724	530.92228	-478.91941	595.23782	911.56251	-462.82214	581.78635	791.34483	-407.77897	568.69932	662.74661	-511.43631	565.23399	548.32112	-507.95803	445.75044	529.05623	-486.84642	290.47795	402.36735	-455.14055	232.15639	312.17734	-511.64482	289.34127	206.90378	-495.44030	246.30167	119.73797	-559.28914	333.62356	120.41476	-540.69786	523.48101	427.97999	-475.58890	582.48899	359.08865	-549.64959	526.07567	223.93909	-505.57927	476.48920	122.84795	-533.88612	558.70655	115.38089	-569.15886	296.12729	79.72521	-635.88435	286.92775	74.30309	-399.24527	196.96534	53.38800	-428.77968	500.01721	80.58347	-638.00498	543.21736	81.18868	-406.42197	618.38162	48.32463	-446.90579	563.32720	1565.44884	-486.50279	265.02095	1551.44000	-513.39749	392.57842	1509.01255	-418.42094	575.39780	1516.47134	-424.33560	583.27581	1521.04825	-562.60899	261.53760	1512.23747	-452.36770	255.79901	1497.94937	-594.54918	158.52148	1519.55391	-556.35188	105.70307	1434.24478	-577.88772	51.41996	1486.06698	-549.75246	-45.21912	1477.64699	-534.78246	-35.84696	1397.39110	-533.44118	676.92726	1540.64066	-525.14092	732.15732	1455.91282	-542.23556	786.39751	1508.17060	-512.30219	874.40878	1506.86850	-489.25457	882.96151	1428.70280	-491.47070	-83.30235	1483.18220	-464.10529	-76.94358	1459.05868	-262.54696	-144.30407	1455.47884	-281.68321	896.43219	1514.18008	-366.89268	856.08640	1471.55754	-222.42238	922.27610	1479.98682	-225.96148	303.97601	959.55903	-449.92508	495.84603	981.47001	-464.36236	
